<svg width="48" height="48" viewBox="0 0 48 48" fill="none" xmlns="http://www.w3.org/2000/svg">
<path d="M39 24C39 23.54 38.98 23.1 38.94 22.64L42.66 19.82C43.46 19.22 43.68 18.1 43.18 17.22L39.44 10.76C39.2002 10.3364 38.8123 10.0163 38.3509 9.86124C37.8894 9.70619 37.387 9.72712 36.94 9.92L32.64 11.74C31.9 11.22 31.12 10.76 30.3 10.38L29.72 5.76C29.6 4.76 28.74 4 27.74 4H20.28C19.26 4 18.4 4.76 18.28 5.76L17.7 10.38C16.88 10.76 16.1 11.22 15.36 11.74L11.06 9.92C10.14 9.52 9.06 9.88 8.56 10.76L4.82 17.24C4.32 18.12 4.54 19.22 5.34 19.84L9.06 22.66C8.97709 23.5581 8.97709 24.4619 9.06 25.36L5.34 28.18C4.54 28.78 4.32 29.9 4.82 30.78L8.56 37.24C9.06 38.12 10.14 38.48 11.06 38.08L15.36 36.26C16.1 36.78 16.88 37.24 17.7 37.62L18.28 42.24C18.4 43.24 19.26 44 20.26 44H27.72C28.72 44 29.58 43.24 29.7 42.24L30.28 37.62C31.1 37.24 31.88 36.78 32.62 36.26L36.92 38.08C37.84 38.48 38.92 38.12 39.42 37.24L43.16 30.78C43.66 29.9 43.44 28.8 42.64 28.18L38.92 25.36C38.98 24.9 39 24.46 39 24ZM24.08 31C20.22 31 17.08 27.86 17.08 24C17.08 20.14 20.22 17 24.08 17C27.94 17 31.08 20.14 31.08 24C31.08 27.86 27.94 31 24.08 31Z" fill="#D1D3E3"/>
</svg>
